<svg xmlns="http://www.w3.org/2000/svg" width="110" height="109" viewBox="0 0 110 109" version="1.1"><path d="M 44 8.814 C 29.117 12.704, 19.013 22.833, 14.385 38.500 C 12.203 45.889, 11.955 62.174, 13.905 70 C 15.540 76.563, 20.011 85.805, 22.744 88.272 C 24.661 90.003, 24.851 89.810, 30.828 80.042 L 36.949 70.038 36.333 60.667 C 35.258 44.297, 38.300 34.410, 46.010 29.214 C 48.934 27.244, 50.563 26.917, 56.486 27.110 L 63.500 27.339 68.749 18.969 C 71.636 14.365, 73.661 10.287, 73.249 9.906 C 71.891 8.651, 62.005 6.999, 56.201 7.058 C 53.065 7.089, 47.575 7.880, 44 8.814 M 82.419 30.250 C 79.251 35.337, 76.060 40.210, 75.329 41.079 C 74.598 41.947, 74 42.960, 74 43.329 C 74 43.698, 79.400 44, 86 44 C 92.600 44, 98 43.645, 98 43.210 C 98 38.356, 90.913 21, 88.930 21 C 88.517 21, 85.587 25.163, 82.419 30.250 M 73 70.999 C 70.872 79.869, 63.511 84.813, 54.091 83.697 L 49.458 83.148 44.228 91.599 L 38.998 100.049 41.749 101.182 C 43.262 101.805, 49.054 102.518, 54.620 102.766 C 66.347 103.289, 73.632 101.663, 81.234 96.825 C 89.266 91.713, 96.188 80.055, 97.161 70 L 97.500 66.500 85.857 66.219 L 74.214 65.938 73 70.999" stroke="none" fill="#0c0c0c" fill-rule="evenodd"/></svg>